<!DOCTYPE svg PUBLIC "-//W3C//DTD SVG 1.1//EN" "http://www.w3.org/Graphics/SVG/1.1/DTD/svg11.dtd">
<!-- Uploaded to: SVG Repo, www.svgrepo.com, Transformed by: SVG Repo Mixer Tools -->
<svg fill="#000000" height="800px" width="800px" version="1.1" id="Capa_1" xmlns="http://www.w3.org/2000/svg" xmlns:xlink="http://www.w3.org/1999/xlink" viewBox="0 0 483.837 483.837" xml:space="preserve" transform="rotate(45)">
<g id="SVGRepo_bgCarrier" stroke-width="0"/>
<g id="SVGRepo_tracerCarrier" stroke-linecap="round" stroke-linejoin="round"/>
<g id="SVGRepo_iconCarrier"> <g> <path d="M483.837,97.407c0-22.934-13.277-44.233-37.387-59.974c-22.99-15.01-53.392-23.277-85.605-23.277 c-32.213,0-62.615,8.267-85.605,23.277c-24.109,15.741-37.387,37.04-37.387,59.974v61.504c0,22.934,13.277,44.233,37.387,59.974 c20.967,13.69,48.105,21.747,77.153,23.063v58.164c0,38.436-31.269,69.705-69.705,69.705c-38.156,0-69.198-31.787-69.198-70.857 V163.604c0-47.81-38.782-86.705-86.452-86.705c-47.809,0-86.705,38.896-86.705,86.704v179.581C31.695,354.694,0,398.447,0,420.848 c0,26.927,21.907,48.834,48.834,48.834c26.927,0,48.833-21.907,48.833-48.834c0-22.402-31.694-66.154-40.333-77.665v-179.58 c0-38.435,31.269-69.704,69.705-69.704c38.296,0,69.452,31.27,69.452,69.705v135.354c0,48.445,38.668,87.857,86.198,87.857 c47.81,0,86.705-38.896,86.705-86.705v-58.168c29.012-1.33,56.113-9.384,77.057-23.058c24.109-15.741,37.387-37.04,37.387-59.974 V97.407z M48.834,452.682C31.281,452.682,17,438.401,17,420.848c0-12.118,17.459-40.456,31.836-60.523 c14.376,20.061,31.832,48.39,31.832,60.523C80.668,438.401,66.388,452.682,48.834,452.682z M284.535,51.667 c20.259-13.227,47.36-20.512,76.311-20.512c28.951,0,56.052,7.285,76.311,20.512c19.14,12.496,29.681,28.74,29.681,45.739 c0,5.35-1.046,10.626-3.074,15.733c-22.42-23.081-61.173-37.48-102.917-37.48c-41.745,0-80.497,14.399-102.917,37.48 c-2.028-5.107-3.074-10.383-3.074-15.734C254.854,80.407,265.395,64.163,284.535,51.667z M454.505,128.193 c-4.589,5.382-10.399,10.415-17.349,14.953c-20.259,13.227-47.36,20.511-76.311,20.511c-28.951,0-56.052-7.284-76.311-20.511 c-6.95-4.537-12.759-9.57-17.348-14.953c18.416-21.748,54.311-35.533,93.659-35.533C400.194,92.66,436.089,106.446,454.505,128.193 z M466.837,158.91c0,16.999-10.54,33.243-29.681,45.739c-20.259,13.227-47.36,20.511-76.311,20.511 c-28.951,0-56.052-7.285-76.311-20.511c-19.14-12.497-29.681-28.74-29.681-45.739v-18.965c5.536,6.331,12.357,12.192,20.387,17.435 c22.99,15.01,53.392,23.277,85.605,23.277c32.213,0,62.615-8.267,85.605-23.277c8.03-5.243,14.851-11.104,20.387-17.435V158.91z"/> <circle cx="291.823" cy="185.884" r="9.229"/> <circle cx="358.823" cy="204.551" r="9.229"/> <circle cx="426.156" cy="187.217" r="9.229"/> <circle cx="426.156" cy="70.884" r="9.229"/> <circle cx="359.156" cy="52.217" r="9.229"/> <circle cx="291.489" cy="69.884" r="9.229"/> </g> </g>
</svg>